<svg xmlns="http://www.w3.org/2000/svg" width="268.169" height="295.674" viewBox="0 0 268.169 295.674">
  <g id="Iconly_Light-Outline_Calendar" data-name="Iconly/Light-Outline/Calendar" transform="translate(-2 -1)">
    <g id="Calendar" transform="translate(2 1)">
      <path id="Combined-Shape" d="M189.691,0a10.318,10.318,0,0,1,10.314,10.314l.007,11.659c20.08,1.377,36.756,8.255,48.559,20.082C261.457,55,268.237,73.6,268.168,95.923V221.385c0,45.822-29.1,74.29-75.926,74.29H75.926C29.1,295.674,0,266.808,0,220.34V95.9C0,52.675,25.951,24.932,68.276,21.978l.008-11.664a10.314,10.314,0,1,1,20.628,0l0,11.4H179.37l.007-11.4A10.318,10.318,0,0,1,189.691,0ZM247.54,122.45H20.628v97.89c0,35.288,19.638,54.706,55.3,54.706H192.242c35.66,0,55.3-19.061,55.3-53.661ZM195.3,208.983a10.307,10.307,0,1,1-.124,0Zm-61.026,0a10.307,10.307,0,1,1-.124,0Zm-61.153,0a10.321,10.321,0,1,1-.124,0ZM195.3,155.532a10.307,10.307,0,1,1-.124,0Zm-61.026,0a10.307,10.307,0,1,1-.124,0Zm-61.153,0a10.321,10.321,0,1,1-.124,0ZM179.37,42.343H88.908l0,13.23a10.314,10.314,0,1,1-20.628,0l-.007-12.917C37.468,45.243,20.628,63.918,20.628,95.9v5.926H247.54V95.9c.055-16.984-4.511-30.186-13.573-39.263-7.956-7.979-19.585-12.744-33.949-13.971l-.012,12.911a10.314,10.314,0,1,1-20.628,0Z" transform="translate(0 0)" fill="#fff" fill-rule="evenodd"/>
    </g>
  </g>
</svg>
