<svg xmlns="http://www.w3.org/2000/svg" width="38.041" height="35.31" viewBox="0 0 38.041 35.31">
  <g id="Group_248" data-name="Group 248" transform="translate(1178.925 -6447.056)">
    <path id="Path_30" data-name="Path 30" d="M-866.543,276.5v14.735a5.054,5.054,0,0,1-2.554-3.8,16.742,16.742,0,0,1-.1-2.363q-.018-1.893,0-3.788A5.321,5.321,0,0,1-866.543,276.5Z" transform="translate(-309.72 6182.204)" fill="#fff"/>
    <path id="Path_31" data-name="Path 31" d="M-846.951,287.354a2.634,2.634,0,0,1-.083.627,1.117,1.117,0,0,1-1.008.919,7.336,7.336,0,0,1-3.47-.286l-.038-.016V272.982a5.135,5.135,0,0,1,1.883-.325h1.21a1.376,1.376,0,0,1,1.5,1.5v6.629h0Q-846.947,284.074-846.951,287.354Z" transform="translate(-323.816 6185.272)" fill="#fff"/>
    <path id="Path_32" data-name="Path 32" d="M-716.764,272.984c.083.022.165.044.248.073v15.671a5.491,5.491,0,0,1-.659.183,9.778,9.778,0,0,1-2.554.1,1.285,1.285,0,0,1-1.284-1.355c-.026-1.165-.012-2.331-.014-3.5v-9.756a2.538,2.538,0,0,1,.024-.4,1.294,1.294,0,0,1,1.5-1.256A11.268,11.268,0,0,1-716.764,272.984Z" transform="translate(-428.022 6185.198)" fill="#fff"/>
    <path id="Path_33" data-name="Path 33" d="M-691.422,286.327a5.48,5.48,0,0,1-2.75,4.752V276.2a5.258,5.258,0,0,1,2.655,3.79,9.766,9.766,0,0,1,.091,1.262C-691.416,282.938-691.42,284.627-691.422,286.327Z" transform="translate(-449.465 6182.443)" fill="#fff"/>
    <path id="Path_34" data-name="Path 34" d="M-848.24,228.245a16.3,16.3,0,0,1,14.066-9.506,16.171,16.171,0,0,1,15.489,9.506h-.677c-.627,0-1.256-.014-1.883,0a.657.657,0,0,1-.639-.349A14.3,14.3,0,0,0-824,225.261a13.4,13.4,0,0,0-6.879-3.566,13,13,0,0,0-5-.028,13.477,13.477,0,0,0-7.353,3.958,12.965,12.965,0,0,0-1.716,2.218.807.807,0,0,1-.766.4C-846.552,228.235-847.385,228.245-848.24,228.245Z" transform="translate(-326.458 6228.33)" fill="#fff"/>
    <path id="Path_35" data-name="Path 35" d="M-774.9,354.347a4.535,4.535,0,0,0,2.639.456,4.773,4.773,0,0,1-.968,1.982,5.383,5.383,0,0,1-4.355,2.081c-.807,0-1.6,0-2.4-.01a.655.655,0,0,0-.651.413,3.884,3.884,0,0,1-3.117,2.272,3.907,3.907,0,0,1-3.919-1.768,4.072,4.072,0,0,1,2.288-6.2,4.06,4.06,0,0,1,4.766,2.2.538.538,0,0,0,.6.371c.861-.028,1.724-.012,2.587-.016a2.558,2.558,0,0,0,2.371-1.522c.038-.073.075-.145.113-.216C-774.935,354.382-774.919,354.374-774.9,354.347Z" transform="translate(-374.26 6120.787)" fill="#fff"/>
  </g>
</svg>
