<svg xmlns="http://www.w3.org/2000/svg" width="106.768" height="77.629" viewBox="0 0 106.768 77.629">
  <g id="database" transform="translate(1139.24 -6178.68)">
    <path id="Path_22" data-name="Path 22" d="M-774.489,35.158a13.045,13.045,0,0,0-3.918-2.5,13.02,13.02,0,0,0-4.927-.962A13.051,13.051,0,0,0-796.38,44.75,13.05,13.05,0,0,0-783.333,57.8a13.02,13.02,0,0,0,4.927-.962,13.1,13.1,0,0,0,4.514-3.081,13,13,0,0,0,3-5.063,12.951,12.951,0,0,0,.6-3.926,13.215,13.215,0,0,0-.42-3.305,13.091,13.091,0,0,0-3.782-6.3Zm-3.918,16.832a8.689,8.689,0,0,1-4.927,1.523A8.77,8.77,0,0,1-792.1,44.75a8.774,8.774,0,0,1,8.763-8.766,8.689,8.689,0,0,1,4.927,1.523,8.763,8.763,0,0,1,3.836,7.244A8.756,8.756,0,0,1-778.407,51.99Z" transform="translate(-329.954 6178.662)" fill="#3876da"/>
    <path id="Path_23" data-name="Path 23" d="M-723.208,14.889h0V-12.719c0-2.364-1.464-4.362-3.918-5.955-4.311-2.835-11.683-4.44-19.317-4.755v-16.2h-.055c-.9-6.586-13.541-10.024-26.042-10.024-12.073,0-24.247,3.2-25.9,9.347h-.195v9.9a25.649,25.649,0,0,0-4.927-.471A25.992,25.992,0,0,0-829.52-4.918a25.988,25.988,0,0,0,25.957,25.957,25.859,25.859,0,0,0,17.019-6.371,58.673,58.673,0,0,0,11.138,1.511v1.168h0v1.83a6.356,6.356,0,0,0,1.071,1.721c3.918,4.638,14.717,7.08,25.018,7.08,11.166,0,22.935-2.874,25.859-8.28a2.773,2.773,0,0,0,.245-.522,5.283,5.283,0,0,0,.459-2.142A5.112,5.112,0,0,0-723.208,14.889Zm-71.515-53.771c.031-2.8,8.661-6.839,22.179-6.839s22.2,4.062,22.2,6.854-8.642,6.858-22.2,6.858-22.148-4.046-22.179-6.843Zm0,5.97c4.856,3.182,13.549,4.821,22.179,4.821s17.327-1.643,22.2-4.821v6.788l-.171.358a6.239,6.239,0,0,1-2.652,2.387c-6.364.358-12.435,1.616-16.622,3.739q-1.336.058-2.726.058a58.286,58.286,0,0,1-10.235-.868,26.092,26.092,0,0,0-11.94-8.879Zm17.109,27.8a25.7,25.7,0,0,0-1.274-7.836c1.145.109,2.309.191,3.478.238V-5c-.752,0-1.488-.062-2.2-.121Zm-13.907,18.222a21.576,21.576,0,0,1-12.046,3.653A21.673,21.673,0,0,1-825.24-4.906a21.673,21.673,0,0,1,21.673-21.688,21.617,21.617,0,0,1,4.927.565,21.7,21.7,0,0,1,14.931,12.416,21.632,21.632,0,0,1,1.8,7.976v.72a21.767,21.767,0,0,1-.876,6.122,21.642,21.642,0,0,1-3.2,6.535,21.758,21.758,0,0,1-5.538,5.363Zm12.494-4.159a1.2,1.2,0,0,0-.234-.027q-1.118-.125-2.173-.28a25.914,25.914,0,0,0,2.96-6.893c1.013.09,2.037.156,3.065.2V9.215q-1.869-.1-3.618-.273Zm51.9,6.231h0a.035.035,0,0,0-.023,0c-1.242,1.671-4.673,3.369-9.612,4.479a51.727,51.727,0,0,1-7.614,1.137c-1.558.117-3.209.183-4.919.183a63.133,63.133,0,0,1-6.477-.327,1.587,1.587,0,0,0-.234-.023c-6.776-.736-11.979-2.528-14.41-4.444l-.1-.078a5.063,5.063,0,0,1-.95-.978h0V8.9c.175.113.35.226.537.335,3.875,2.337,9.869,3.762,16.291,4.284,1.764.14,3.56.21,5.351.21,8.63,0,17.323-1.64,22.2-4.817Zm0-14.893-.164.347c-1.266,2.726-8.677,5.608-18.9,6.107-1.013.051-2.056.078-3.116.078-2.08,0-4.07-.1-5.939-.28C-762.4,5.85-767.839,3.977-770.2,1.975A4.089,4.089,0,0,1-771.309.64l-.175-.389V-6.76a19.759,19.759,0,0,0,3.283,1.7,49.435,49.435,0,0,0,16.423,3.077c.475,0,.95.031,1.425.039h1.055q1.429,0,2.859-.062c7.649-.319,15.005-1.924,19.317-4.759Zm-19.317-6.2q-1.39.062-2.859.062a59.51,59.51,0,0,1-9.44-.72c-7.918-1.281-12.665-4.015-12.743-6.083a.254.254,0,0,1,0-.055c0-2.792,8.646-6.854,22.2-6.854q1.464,0,2.859.062c11.886.518,19.317,4.2,19.317,6.792s-7.446,6.266-19.332,6.784Z" transform="translate(-309.72 6228.33)" fill="#3876da"/>
  </g>
</svg>
