<svg xmlns="http://www.w3.org/2000/svg" width="56.026" height="56.026" viewBox="0 0 56.026 56.026">
  <path id="Icon_awesome-facebook-square" data-name="Icon awesome-facebook-square" d="M50.023,2.25H6a6,6,0,0,0-6,6V52.273a6,6,0,0,0,6,6H23.167V39.228H15.288V30.263h7.879V23.43c0-7.772,4.627-12.066,11.714-12.066a47.73,47.73,0,0,1,6.943.605V19.6H37.914c-3.853,0-5.055,2.391-5.055,4.844v5.821h8.6l-1.376,8.965H32.859V58.276H50.023a6,6,0,0,0,6-6V8.253a6,6,0,0,0-6-6Z" transform="translate(0 -2.25)" fill="#3876da"/>
</svg>
