<svg xmlns="http://www.w3.org/2000/svg" width="90.605" height="84.101" viewBox="0 0 90.605 84.101">
  <g id="headphone" transform="translate(1178.925 -6447.056)">
    <path id="Path_30" data-name="Path 30" d="M-862.864,276.5v35.1a12.037,12.037,0,0,1-6.084-9.052,39.866,39.866,0,0,1-.235-5.628q-.043-4.509,0-9.023A12.673,12.673,0,0,1-862.864,276.5Z" transform="translate(-309.72 6198.298)" fill="#3876da"/>
    <path id="Path_31" data-name="Path 31" d="M-840.6,307.664a6.272,6.272,0,0,1-.2,1.493,2.66,2.66,0,0,1-2.4,2.19,17.473,17.473,0,0,1-8.264-.682l-.091-.038v-37.2a12.23,12.23,0,0,1,4.485-.773h2.881a3.277,3.277,0,0,1,3.582,3.582v15.789h0Q-840.587,299.851-840.6,307.664Z" transform="translate(-318.897 6200.296)" fill="#3876da"/>
    <path id="Path_32" data-name="Path 32" d="M-710.869,273.307c.2.053.394.106.591.173V310.8a13.064,13.064,0,0,1-1.57.437,23.288,23.288,0,0,1-6.084.25,3.06,3.06,0,0,1-3.059-3.227c-.062-2.776-.029-5.551-.034-8.326V276.7a6.067,6.067,0,0,1,.058-.96c.375-2.151,1.369-3.006,3.568-2.992A26.836,26.836,0,0,1-710.869,273.307Z" transform="translate(-386.743 6200.248)" fill="#3876da"/>
    <path id="Path_33" data-name="Path 33" d="M-687.621,300.32a13.052,13.052,0,0,1-6.551,11.319V276.2a12.523,12.523,0,0,1,6.324,9.027,23.253,23.253,0,0,1,.216,3.006C-687.607,292.248-687.617,296.272-687.621,300.32Z" transform="translate(-400.704 6198.454)" fill="#3876da"/>
    <path id="Path_34" data-name="Path 34" d="M-848.24,241.4c4.8-11.332,17.594-22.026,33.5-22.641,18.564-.715,32.216,11.227,36.893,22.641h-1.614c-1.493,0-2.992-.034-4.485,0a1.565,1.565,0,0,1-1.522-.831,34.049,34.049,0,0,0-5.037-6.276,31.909,31.909,0,0,0-16.384-8.495,30.958,30.958,0,0,0-11.909-.067,32.1,32.1,0,0,0-17.512,9.426,30.884,30.884,0,0,0-4.086,5.282,1.921,1.921,0,0,1-1.825.96C-844.221,241.374-846.2,241.4-848.24,241.4Z" transform="translate(-320.618 6228.33)" fill="#3876da"/>
    <path id="Path_35" data-name="Path 35" d="M-756.287,355.622c1.9,1.33,4.1,1.008,6.286,1.085a11.37,11.37,0,0,1-2.3,4.72,12.821,12.821,0,0,1-10.372,4.956c-1.921,0-3.8,0-5.7-.024a1.561,1.561,0,0,0-1.551.984,9.251,9.251,0,0,1-7.424,5.412,9.306,9.306,0,0,1-9.335-4.211,9.7,9.7,0,0,1,5.45-14.766,9.671,9.671,0,0,1,11.352,5.239,1.282,1.282,0,0,0,1.441.884c2.05-.067,4.106-.029,6.161-.038a6.093,6.093,0,0,0,5.647-3.625c.091-.173.178-.346.269-.514C-756.374,355.7-756.335,355.684-756.287,355.622Z" transform="translate(-351.74 6158.312)" fill="#3876da"/>
  </g>
</svg>
