<svg xmlns="http://www.w3.org/2000/svg" width="53.73" height="53.73" viewBox="0 0 53.73 53.73">
  <g id="Icon_feather-instagram" data-name="Icon feather-instagram" transform="translate(3 3)">
    <path id="Path_41" data-name="Path 41" d="M14.932,3H38.8A11.932,11.932,0,0,1,50.73,14.932V38.8A11.932,11.932,0,0,1,38.8,50.73H14.932A11.932,11.932,0,0,1,3,38.8V14.932A11.932,11.932,0,0,1,14.932,3Z" transform="translate(-3 -3)" fill="none" stroke="#3876da" stroke-linecap="round" stroke-linejoin="round" stroke-width="6"/>
    <path id="Path_42" data-name="Path 42" d="M31.054,20.081a9.546,9.546,0,1,1-8.042-8.042,9.546,9.546,0,0,1,8.042,8.042Z" transform="translate(2.357 2.28)" fill="none" stroke="#3876da" stroke-linecap="round" stroke-linejoin="round" stroke-width="6"/>
    <path id="Path_43" data-name="Path 43" d="M26.25,9.75h0" transform="translate(10.741 0.989)" fill="none" stroke="#3876da" stroke-linecap="round" stroke-linejoin="round" stroke-width="6"/>
  </g>
</svg>
