<svg xmlns="http://www.w3.org/2000/svg" width="56.026" height="56.026" viewBox="0 0 56.026 56.026">
  <path id="Icon_awesome-linkedin" data-name="Icon awesome-linkedin" d="M52.024,2.25H3.989A4.019,4.019,0,0,0,0,6.289V54.237a4.019,4.019,0,0,0,3.989,4.039H52.024a4.03,4.03,0,0,0,4-4.039V6.289A4.03,4.03,0,0,0,52.024,2.25ZM16.933,50.272h-8.3V23.535h8.316V50.272ZM12.781,19.883A4.815,4.815,0,1,1,17.6,15.068a4.817,4.817,0,0,1-4.815,4.815ZM48.06,50.272h-8.3V37.266c0-3.1-.063-7.091-4.315-7.091-4.327,0-4.99,3.377-4.99,6.866V50.272h-8.3V23.535h7.966v3.652h.113a8.746,8.746,0,0,1,7.866-4.315c8.4,0,9.967,5.54,9.967,12.743Z" transform="translate(0 -2.25)" fill="#3876da"/>
</svg>
