<svg xmlns="http://www.w3.org/2000/svg" width="270.428" height="319.597" viewBox="0 0 270.428 319.597">
  <g id="Iconly_Light-Outline_Location" data-name="Iconly/Light-Outline/Location" transform="translate(-4 -2)">
    <g id="Location" transform="translate(3.999 2)">
      <path id="Combined-Shape" d="M135.214,1C209.77,1,270.428,62.117,270.428,137.247c0,92.355-105.811,183.35-135.214,183.35S0,229.6,0,137.247C0,62.117,60.657,1,135.214,1Zm0,24.584c-61,0-110.63,50.1-110.63,111.662,0,78.326,92.175,154.636,110.63,158.7,18.455-4.081,110.63-80.391,110.63-158.7C245.843,75.687,196.216,25.584,135.214,25.584Zm.016,57.364a53.266,53.266,0,1,1-53.266,53.283A53.331,53.331,0,0,1,135.23,82.948Zm0,24.584a28.682,28.682,0,1,0,28.682,28.7A28.717,28.717,0,0,0,135.23,107.532Z" transform="translate(0 -1)" fill="#fff" fill-rule="evenodd"/>
    </g>
  </g>
</svg>
