<svg xmlns="http://www.w3.org/2000/svg" xmlns:xlink="http://www.w3.org/1999/xlink" width="1300" height="541" viewBox="0 0 1300 541">
  <defs>
    <filter id="Ellipse_23" x="0" y="0" width="315" height="315" filterUnits="userSpaceOnUse">
      <feOffset dy="3" input="SourceAlpha"/>
      <feGaussianBlur stdDeviation="3" result="blur"/>
      <feFlood flood-opacity="0.161"/>
      <feComposite operator="in" in2="blur"/>
      <feComposite in="SourceGraphic"/>
    </filter>
    <filter id="Ellipse_28" x="502" y="226" width="315" height="315" filterUnits="userSpaceOnUse">
      <feOffset dy="3" input="SourceAlpha"/>
      <feGaussianBlur stdDeviation="3" result="blur-2"/>
      <feFlood flood-opacity="0.161"/>
      <feComposite operator="in" in2="blur-2"/>
      <feComposite in="SourceGraphic"/>
    </filter>
    <filter id="Ellipse_29" x="985" y="0" width="315" height="315" filterUnits="userSpaceOnUse">
      <feOffset dy="3" input="SourceAlpha"/>
      <feGaussianBlur stdDeviation="3" result="blur-3"/>
      <feFlood flood-opacity="0.161"/>
      <feComposite operator="in" in2="blur-3"/>
      <feComposite in="SourceGraphic"/>
    </filter>
  </defs>
  <g id="presentation1" transform="translate(1632 -3161)">
    <g id="Subtraction_9" data-name="Subtraction 9" transform="translate(-1855 2783)">
      <path id="Path_20" data-name="Path 20" d="M882.5,789c-69.947,0-138.5-7.481-203.75-22.235a810.1,810.1,0,0,1-91.535-26.346,703.008,703.008,0,0,1-82.606-35.212,584.939,584.939,0,0,1-72.149-43.113c-11.034-7.766-21.691-15.914-31.676-24.218-10.014-8.328-19.6-17.019-28.489-25.831-8.932-8.853-17.38-18.047-25.111-27.324a348,348,0,0,1-21.542-28.7,310.753,310.753,0,0,1-17.783-29.947A281.558,281.558,0,0,1,294.025,495h1176.95a281.564,281.564,0,0,1-13.832,31.078,310.771,310.771,0,0,1-17.783,29.947,347.945,347.945,0,0,1-21.543,28.7c-7.731,9.277-16.18,18.47-25.111,27.324-8.89,8.812-18.475,17.5-28.49,25.831-9.985,8.3-20.642,16.452-31.676,24.218a584.975,584.975,0,0,1-72.149,43.113,703.036,703.036,0,0,1-82.606,35.212,810.09,810.09,0,0,1-91.536,26.346C1021,781.519,952.447,789,882.5,789Z" fill="#fff"/>
      <path id="Path_21" data-name="Path 21" d="M882.5,789h-1.569q-4.22-.006-8.431-.05a2.5,2.5,0,0,1,.024-5h.027c3.3.033,6.645.05,9.949.05a2.5,2.5,0,0,1,0,5Zm-24.935-.319H857.5q-4.059-.1-8.111-.242h-.048l-.211-.007-.109,0-.128,0-.286-.01H848.6l-1.1-.039a2.5,2.5,0,0,1,.192-5c3.295.118,6.641.222,9.943.306a2.5,2.5,0,0,1-.063,5Zm-24.914-.961c-.043,0-.087,0-.131,0q-2.952-.152-5.9-.322l-.072-.005-.219-.012-.152-.009-.126-.008-.171-.01h-.015q-1.676-.1-3.347-.2a2.5,2.5,0,0,1,.327-4.99c3.291.2,6.633.395,9.932.565a2.5,2.5,0,0,1-.127,5Zm-24.881-1.612c-.065,0-.131,0-.2-.008l-.611-.048h-.019l-.275-.022-.079-.006-.2-.016-.129-.01-.194-.015-.125-.01-.144-.012-.208-.016-.127-.011-.14-.011-.145-.012-.2-.015-.145-.012-.116-.01-.241-.019-.081-.007-.219-.018-.055,0-.279-.023-.037,0q-3.1-.255-6.2-.53a2.5,2.5,0,1,1,.441-4.98c3.284.291,6.619.569,9.913.826a2.5,2.5,0,0,1-.192,4.993Zm-24.83-2.271a2.357,2.357,0,0,1-.264-.014q-4.977-.522-9.939-1.1a2.5,2.5,0,0,1,.575-4.967c3.275.38,6.6.747,9.886,1.092a2.5,2.5,0,0,1-.258,4.986ZM758.184,780.9a2.636,2.636,0,0,1-.329-.021l-.025,0-.25-.033-.105-.014-.151-.02-.244-.032-.081-.011-.175-.023-.041-.006q-4.434-.593-8.852-1.227a2.5,2.5,0,0,1,.727-4.947c3.262.468,6.577.926,9.852,1.36a2.5,2.5,0,0,1-.326,4.978Zm-24.669-3.613a2.575,2.575,0,0,1-.4-.032l-2.151-.349-.033-.005-.229-.037-.111-.018-.187-.031-.148-.024-.076-.013-.308-.05-.045-.008-1.158-.191h0l-.369-.061-.027,0-.184-.031-.031-.005-.309-.052-.1-.015-.143-.024-.221-.037-.1-.016-.206-.035-.057-.009-.289-.049h-.008q-1.692-.285-3.382-.576a2.5,2.5,0,0,1,.848-4.927c3.248.559,6.548,1.108,9.81,1.632a2.5,2.5,0,0,1-.394,4.969Zm-24.553-4.3a2.511,2.511,0,0,1-.469-.044q-4.917-.933-9.814-1.919a2.5,2.5,0,0,1,.988-4.9c3.229.651,6.513,1.293,9.758,1.908a2.5,2.5,0,0,1-.463,4.957Zm-24.425-4.995a2.555,2.555,0,0,1-.539-.058l-.982-.217h-.005l-.263-.058-.168-.037-.009,0q-1.717-.379-3.43-.766l-.009,0-.127-.029-.255-.058h0l-.236-.053-.09-.021-.2-.044-.1-.022-.174-.04-.095-.021-.219-.05-.077-.018-.178-.04-.073-.017-.242-.055-.042-.01-.222-.05-.047-.011-.257-.059-.022-.005-.256-.059-.016,0-.271-.062-.015,0-.253-.058-.028-.007L675.4,766l-.077-.018-.169-.038-.091-.021-.191-.045-.171-.039-.014,0-.449-.1a2.5,2.5,0,0,1,1.138-4.869c1.485.344,2.991.689,4.478,1.025,1.728.391,3.484.782,5.217,1.163a2.5,2.5,0,0,1-.533,4.942Zm-24.263-5.7a2.518,2.518,0,0,1-.61-.076q-2.726-.684-5.443-1.384l-.017-.005-.262-.067-.076-.02-.205-.053-.153-.04-.1-.026q-1.717-.444-3.433-.9a2.5,2.5,0,0,1,1.28-4.833c3.185.839,6.424,1.672,9.626,2.475a2.5,2.5,0,0,1-.606,4.926Zm-24.082-6.426a2.517,2.517,0,0,1-.682-.095q-3.464-.981-6.907-1.989l-.006,0-.263-.077-.08-.024-.187-.054-.164-.048-.1-.029-1.913-.565a2.5,2.5,0,0,1,1.436-4.789c3.155.935,6.366,1.865,9.545,2.766a2.5,2.5,0,0,1-.68,4.906Zm-23.871-7.16a2.482,2.482,0,0,1-.746-.115q-4.791-1.52-9.539-3.092a2.5,2.5,0,0,1,1.588-4.741c3.12,1.033,6.3,2.064,9.452,3.064a2.5,2.5,0,0,1-.755,4.884Zm-23.628-7.914a2.513,2.513,0,0,1-.826-.141l-.653-.231h0l-.238-.085-.063-.022-.222-.079-.075-.027-.174-.061-.073-.026-.2-.072-.105-.038-.164-.058-.14-.05-.107-.038-.447-.16-.053-.019-.288-.1-.023-.008q-2.7-.966-5.375-1.948l-.063-.023-.211-.078-.132-.048-.092-.034-.216-.08-.056-.02-.24-.089a2.5,2.5,0,0,1,1.729-4.691c2.876,1.06,5.8,2.117,8.7,3.144l.642.227a2.5,2.5,0,0,1-.833,4.858ZM565.344,732.1a2.482,2.482,0,0,1-.9-.168c-.721-.282-1.438-.564-2.157-.849l-.031-.012-.263-.1-.095-.037-.155-.062-.165-.065-.1-.042-.211-.084-.079-.031-.228-.091-.061-.024-.227-.09-.029-.012-.264-.1-.033-.013-.261-.1-.035-.014-.266-.107-.015-.006-.559-.223-.018-.007-.27-.109-.026-.01-.269-.108-.021-.009-.55-.221-.025-.01-.263-.106-.036-.015-.255-.1-.045-.018-.258-.105-.013,0-.244-.1-.053-.021-.236-.1-.065-.026-.226-.092-.083-.033-.208-.085-.082-.033-.178-.073-.1-.042-.184-.075-.108-.044-.191-.078-.053-.022a2.5,2.5,0,0,1,1.892-4.628c3.043,1.241,6.146,2.481,9.221,3.686a2.5,2.5,0,0,1-.912,4.829Zm-23.035-9.488a2.473,2.473,0,0,1-.975-.2q-2.2-.951-4.389-1.916l-.168-.074-.1-.044-.222-.1-.017-.007q-2.141-.946-4.27-1.9a2.5,2.5,0,0,1,2.052-4.56c2.993,1.347,6.049,2.7,9.082,4.008a2.5,2.5,0,0,1-.994,4.795Zm-22.675-10.3a2.479,2.479,0,0,1-1.062-.238q-1.617-.771-3.221-1.546l-.04-.02-.237-.114-.1-.048-.158-.076-.155-.075-.085-.042-.22-.106-.06-.029-.233-.114-.045-.021-.254-.124-.005,0q-1.4-.684-2.8-1.371h0l-.273-.135-.016-.008-.264-.13-.023-.011-.205-.1-.118-.058-.138-.068-.365-.181a2.5,2.5,0,0,1,2.228-4.476c2.937,1.456,5.94,2.916,8.925,4.339a2.5,2.5,0,0,1-1.077,4.757Zm-22.267-11.148a2.492,2.492,0,0,1-1.148-.281q-1.2-.63-2.394-1.264l-.006,0-.285-.152-.012-.006-.236-.126-.062-.033-.132-.07-.123-.066-.155-.082-.153-.082-.115-.062-.15-.079-.124-.067-.163-.087-.083-.044-.2-.105-.074-.04-.216-.116-.058-.031-.225-.121-.052-.028-.234-.125-.035-.019-.249-.134-.017-.01q-1.644-.885-3.279-1.778a2.5,2.5,0,1,1,2.4-4.388c2.881,1.573,5.823,3.15,8.745,4.685a2.5,2.5,0,0,1-1.165,4.714Zm-21.8-12.025a2.486,2.486,0,0,1-1.249-.337q-4.346-2.514-8.612-5.081a2.5,2.5,0,1,1,2.577-4.284c2.808,1.688,5.681,3.383,8.539,5.037a2.5,2.5,0,0,1-1.255,4.665Zm-21.273-12.923a2.482,2.482,0,0,1-1.341-.393q-2.5-1.594-4.971-3.206l-.035-.023-.056-.037-.082-.053-.025-.016q-1.623-1.06-3.231-2.128a2.5,2.5,0,0,1,2.78-4.155c2.726,1.808,5.521,3.626,8.308,5.4a2.5,2.5,0,0,1-1.347,4.608Zm-20.667-13.852a2.5,2.5,0,0,1-1.421-.445q-1.161-.819-2.318-1.643-2.928-2.088-5.817-4.209a2.5,2.5,0,0,1,2.96-4.03c2.644,1.941,5.348,3.887,8.038,5.783a2.5,2.5,0,0,1-1.442,4.544ZM413.65,647.536a2.489,2.489,0,0,1-1.538-.53l-.007-.006-.105-.082-.033-.026-.078-.061-.059-.046-.06-.047-.078-.061-.031-.024-.1-.08-.016-.012q-1.461-1.145-2.908-2.3l0,0-.112-.089-.025-.02-.091-.072-.043-.035-.081-.064-.032-.026-.088-.07-.044-.035-.074-.059-.069-.055-.047-.038-.1-.083-.014-.011-.118-.094,0,0q-1.281-1.025-2.547-2.052l-.006-.005-.109-.089-.06-.049c-.019-.014-.037-.029-.055-.044l-.113-.092h0l-.506-.412a2.5,2.5,0,0,1,3.164-3.871c2.527,2.06,5.13,4.136,7.735,6.173a2.5,2.5,0,0,1-1.54,4.47Zm-19.184-15.818a2.494,2.494,0,0,1-1.627-.6q-2.59-2.256-5.133-4.54l-.026-.023-.074-.066-.041-.037-.067-.06c-.016-.015-.032-.03-.049-.044l-.054-.049-.063-.057-.045-.04-.07-.064-.042-.037-.074-.066-.039-.036-.076-.069-.036-.032-.081-.073-.029-.026-.09-.082-.019-.017-.1-.089-.013-.012-.106-.1-.006-.006q-.576-.52-1.149-1.043a2.5,2.5,0,1,1,3.367-3.7c2.415,2.2,4.9,4.413,7.385,6.577a2.5,2.5,0,0,1-1.644,4.385Zm-18.274-16.845a2.494,2.494,0,0,1-1.747-.712q-1.082-1.056-2.151-2.116h0l-.136-.135-.039-.039-.12-.119-.019-.018-.129-.129-.048-.048-.1-.1-.053-.053-.108-.107-.061-.061c-.023-.023-.045-.046-.068-.068l-.126-.126-.046-.046-.085-.085c-.011-.011-.022-.021-.032-.032q-1.893-1.891-3.756-3.8a2.5,2.5,0,0,1,3.588-3.482c1.595,1.636,3.228,3.283,4.855,4.9.7.694,1.416,1.4,2.125,2.091a2.5,2.5,0,0,1-1.747,4.288Zm-17.225-17.9a2.5,2.5,0,0,1-1.856-.823l0-.006q-3.373-3.73-6.6-7.5a2.5,2.5,0,0,1,3.8-3.255c2.115,2.468,4.31,4.96,6.522,7.407a2.5,2.5,0,0,1-1.853,4.177Zm-16.025-18.961a2.5,2.5,0,0,1-1.966-.953h0c-.03-.037-.059-.075-.088-.112a.228.228,0,0,1-.019-.024l-.067-.084-.035-.045-.05-.064-.048-.061-.03-.038q-2.822-3.591-5.525-7.224l-.021-.027-.042-.057-.051-.069-.026-.034-.069-.094s0-.005-.007-.008a2.5,2.5,0,0,1,4.014-2.981c1.942,2.613,3.958,5.247,5.992,7.828a2.5,2.5,0,0,1-1.962,4.048ZM328.3,557.988a2.5,2.5,0,0,1-2.074-1.1c-.022-.034-.045-.068-.068-.1l-.512-.762h0l-.078-.115-.063-.094-.013-.02-.056-.083c-.007-.011-.014-.022-.022-.033l-.048-.072-.03-.044-.04-.061c-.013-.018-.025-.037-.038-.056l-.036-.055-.041-.06c-.012-.019-.025-.038-.038-.057l-.039-.059c-.012-.017-.024-.036-.035-.053l-.043-.064-.033-.05-.044-.066-.03-.046-.048-.071-.027-.04-.05-.077-.025-.036c-.018-.027-.036-.054-.053-.081l-.022-.032-.056-.085-.018-.027-.061-.092a.212.212,0,0,0-.013-.019l-.063-.1a.155.155,0,0,1-.014-.021c-.022-.032-.043-.064-.064-.1l-.011-.017-.068-.1-.006-.01c-.024-.035-.047-.071-.071-.107l-.007-.01q-1.535-2.326-3.025-4.672c0-.008-.009-.014-.013-.022l-.029-.045-.421-.665a2.5,2.5,0,0,1,4.231-2.665c1.559,2.471,3.178,4.957,4.812,7.391l.572.849a2.5,2.5,0,0,1-2.069,3.9Zm-13.069-21.071a2.5,2.5,0,0,1-2.169-1.254q-1.3-2.3-2.56-4.615a.04.04,0,0,1-.005-.009l-.058-.106c0-.007-.007-.014-.011-.02-.017-.032-.035-.066-.053-.1l-.018-.033c-.016-.031-.032-.06-.049-.091-.006-.01-.011-.021-.017-.031l-.069-.128-.046-.086c-.009-.015-.017-.03-.025-.045l-.047-.088-.022-.04-.051-.094-.018-.035-.057-.1-.012-.023q-.848-1.575-1.672-3.151a2.5,2.5,0,1,1,4.431-2.316c1.5,2.867,3.081,5.773,4.7,8.636a2.5,2.5,0,0,1-2.174,3.732Zm-11.283-22.06a2.5,2.5,0,0,1-2.275-1.46q-.391-.855-.777-1.712l0,0-.06-.133-.006-.015c-.019-.04-.037-.082-.055-.123l-.009-.019-.124-.277-.008-.018-.051-.114-.022-.048-.037-.084-.026-.057-.033-.074c-.009-.021-.018-.042-.028-.063s-.019-.043-.028-.064l-.033-.074-.017-.039c-.049-.109-.1-.218-.145-.327l0-.006-.05-.114a.038.038,0,0,1-.005-.011q-1.279-2.892-2.486-5.8a2.5,2.5,0,0,1,4.621-1.91c1.244,2.995,2.566,6.023,3.93,9a2.5,2.5,0,0,1-2.271,3.542ZM309.1,500h-10a2.5,2.5,0,0,1,0-5h10a2.5,2.5,0,0,1,0,5Zm25,0h-10a2.5,2.5,0,0,1,0-5h10a2.5,2.5,0,0,1,0,5Zm25,0h-10a2.5,2.5,0,0,1,0-5h10a2.5,2.5,0,0,1,0,5Zm25,0h-10a2.5,2.5,0,0,1,0-5h10a2.5,2.5,0,0,1,0,5Zm25,0h-10a2.5,2.5,0,0,1,0-5h10a2.5,2.5,0,0,1,0,5Zm25,0h-10a2.5,2.5,0,0,1,0-5h10a2.5,2.5,0,0,1,0,5Zm25,0h-10a2.5,2.5,0,0,1,0-5h10a2.5,2.5,0,0,1,0,5Zm25,0h-10a2.5,2.5,0,0,1,0-5h10a2.5,2.5,0,0,1,0,5Zm25,0h-10a2.5,2.5,0,0,1,0-5h10a2.5,2.5,0,0,1,0,5Zm25,0h-10a2.5,2.5,0,0,1,0-5h10a2.5,2.5,0,0,1,0,5Zm25,0h-10a2.5,2.5,0,0,1,0-5h10a2.5,2.5,0,0,1,0,5Zm25,0h-10a2.5,2.5,0,0,1,0-5h10a2.5,2.5,0,0,1,0,5Zm25,0h-10a2.5,2.5,0,0,1,0-5h10a2.5,2.5,0,0,1,0,5Zm25,0h-10a2.5,2.5,0,0,1,0-5h10a2.5,2.5,0,0,1,0,5Zm25,0h-10a2.5,2.5,0,0,1,0-5h10a2.5,2.5,0,0,1,0,5Zm25,0h-10a2.5,2.5,0,0,1,0-5h10a2.5,2.5,0,0,1,0,5Zm25,0h-10a2.5,2.5,0,0,1,0-5h10a2.5,2.5,0,0,1,0,5Zm25,0h-10a2.5,2.5,0,0,1,0-5h10a2.5,2.5,0,0,1,0,5Zm25,0h-10a2.5,2.5,0,0,1,0-5h10a2.5,2.5,0,0,1,0,5Zm25,0h-10a2.5,2.5,0,0,1,0-5h10a2.5,2.5,0,0,1,0,5Zm25,0h-10a2.5,2.5,0,0,1,0-5h10a2.5,2.5,0,0,1,0,5Zm25,0h-10a2.5,2.5,0,0,1,0-5h10a2.5,2.5,0,0,1,0,5Zm25,0h-10a2.5,2.5,0,0,1,0-5h10a2.5,2.5,0,0,1,0,5Zm25,0h-10a2.5,2.5,0,0,1,0-5h10a2.5,2.5,0,0,1,0,5Zm25,0h-10a2.5,2.5,0,0,1,0-5h10a2.5,2.5,0,0,1,0,5Zm25,0h-10a2.5,2.5,0,0,1,0-5h10a2.5,2.5,0,0,1,0,5Zm25,0h-10a2.5,2.5,0,0,1,0-5h10a2.5,2.5,0,0,1,0,5Zm25,0h-10a2.5,2.5,0,0,1,0-5h10a2.5,2.5,0,0,1,0,5Zm25,0h-10a2.5,2.5,0,0,1,0-5h10a2.5,2.5,0,0,1,0,5Zm25,0h-10a2.5,2.5,0,0,1,0-5h10a2.5,2.5,0,0,1,0,5Zm25,0h-10a2.5,2.5,0,0,1,0-5h10a2.5,2.5,0,0,1,0,5Zm25,0h-10a2.5,2.5,0,0,1,0-5h10a2.5,2.5,0,0,1,0,5Zm25,0h-10a2.5,2.5,0,0,1,0-5h10a2.5,2.5,0,0,1,0,5Zm25,0h-10a2.5,2.5,0,0,1,0-5h10a2.5,2.5,0,0,1,0,5Zm25,0h-10a2.5,2.5,0,0,1,0-5h10a2.5,2.5,0,0,1,0,5Zm25,0h-10a2.5,2.5,0,0,1,0-5h10a2.5,2.5,0,0,1,0,5Zm25,0h-10a2.5,2.5,0,0,1,0-5h10a2.5,2.5,0,0,1,0,5Zm25,0h-10a2.5,2.5,0,0,1,0-5h10a2.5,2.5,0,0,1,0,5Zm25,0h-10a2.5,2.5,0,0,1,0-5h10a2.5,2.5,0,0,1,0,5Zm25,0h-10a2.5,2.5,0,0,1,0-5h10a2.5,2.5,0,0,1,0,5Zm25,0h-10a2.5,2.5,0,0,1,0-5h10a2.5,2.5,0,0,1,0,5Zm25,0h-10a2.5,2.5,0,0,1,0-5h10a2.5,2.5,0,0,1,0,5Zm25,0h-10a2.5,2.5,0,0,1,0-5h10a2.5,2.5,0,0,1,0,5Zm25,0h-10a2.5,2.5,0,0,1,0-5h10a2.5,2.5,0,0,1,0,5Zm25,0h-10a2.5,2.5,0,0,1,0-5h10a2.5,2.5,0,0,1,0,5Zm25,0h-10a2.5,2.5,0,0,1,0-5h10a2.5,2.5,0,0,1,0,5Zm25,0h-10a2.5,2.5,0,0,1,0-5h10a2.5,2.5,0,0,1,0,5Zm4.69,8.693a2.459,2.459,0,0,1-.98-.2,2.493,2.493,0,0,1-1.31-3.283c1.29-3.014,2.54-6.073,3.7-9.091a2.458,2.458,0,0,1,.86-1.116h2.95a2.513,2.513,0,0,1,.86,2.919q-1.8,4.635-3.78,9.26A2.505,2.505,0,0,1,1463.79,508.693Zm-10.76,22.316a2.5,2.5,0,0,1-2.2-3.682c.63-1.179,1.26-2.374,1.87-3.551.89-1.713,1.78-3.458,2.63-5.187a2.5,2.5,0,0,1,4.49,2.194q-1.125,2.286-2.3,4.559c0,.01-.01.02-.01.03-.02.032-.03.062-.05.094l-.03.055c-.02.033-.03.065-.05.1l-.06.111-.03.059a.429.429,0,0,1-.05.094.105.105,0,0,1-.02.05c-.03.049-.05.1-.08.145h0l-.06.117c0,.007-.01.015-.01.022-.02.032-.03.063-.05.094,0,.011-.01.022-.02.033a.3.3,0,0,1-.04.082c-.01.015-.01.03-.02.045s-.03.046-.04.07a.109.109,0,0,0-.02.051.225.225,0,0,0-.04.064l-.03.058-.03.055-.03.072a.071.071,0,0,0-.02.038c-.02.027-.03.054-.05.081,0,.011-.01.022-.01.032a.423.423,0,0,0-.05.093c0,.005-.01.01-.01.015l-.06.107h0c-.43.828-.87,1.656-1.31,2.483A2.508,2.508,0,0,1,1453.03,531.009Zm-12.6,21.348a2.5,2.5,0,0,1-2.1-3.856c1.77-2.753,3.53-5.563,5.2-8.352a2.5,2.5,0,1,1,4.29,2.578q-2.565,4.266-5.29,8.485A2.5,2.5,0,0,1,1440.43,552.357Zm-14.24,20.313a2.5,2.5,0,0,1-1.99-4.009c1.98-2.624,3.95-5.3,5.83-7.941a2.5,2.5,0,0,1,4.08,2.888c-.35.5-.71.993-1.06,1.488,0,0-.01,0-.01.007l-.06.09-.03.036c-.02.024-.03.049-.05.074s-.03.033-.04.049a.271.271,0,0,1-.05.066.217.217,0,0,1-.04.062.181.181,0,0,1-.04.052l-.06.087c-.01.009-.01.02-.02.03-.91,1.26-1.84,2.517-2.77,3.771v0l-.09.12s-.01.007-.01.011c-.03.037-.05.073-.08.11-.01.006-.01.012-.02.018-.02.035-.05.071-.07.106-.01.005-.01.012-.02.017a.749.749,0,0,1-.08.108c0,.005-.01.01-.01.016-.09.123-.18.247-.28.371v.009l-.09.109c0,.011-.01.021-.02.033a.534.534,0,0,1-.07.086l-.03.041a.341.341,0,0,0-.05.078.176.176,0,0,0-.04.045l-.06.076-.03.044-.06.078-.03.044-.06.081-.03.038c-.02.03-.05.061-.07.092-.01.009-.01.019-.02.029l-.09.119c-.01.009-.01.018-.02.027-.02.03-.05.061-.07.091-.01.015-.02.031-.03.045l-.06.076a.162.162,0,0,1-.04.045c-.02.026-.03.05-.05.076-.01.007-.01.013-.02.02A2.5,2.5,0,0,1,1426.19,572.67Zm-15.67,19.253a2.5,2.5,0,0,1-1.88-4.143c1.81-2.073,3.6-4.179,5.34-6.26.34-.417.7-.841,1.04-1.26a2.5,2.5,0,0,1,3.86,3.183l-.93,1.118v0c-.04.052-.09.105-.13.158h0l-.09.1c-.01.016-.03.032-.04.048s-.03.035-.04.053a.291.291,0,0,0-.05.061.153.153,0,0,0-.04.042.28.28,0,0,0-.05.064l-.03.037-.06.068-.03.034-.06.069c-.01.011-.02.022-.02.033-.02.024-.05.049-.07.073,0,.008-.01.016-.02.024l-.06.08c-.01.005-.01.011-.02.016q-2.325,2.777-4.73,5.54A2.511,2.511,0,0,1,1410.52,591.923Zm-16.92,18.186a2.468,2.468,0,0,1-1.75-.724,2.493,2.493,0,0,1-.02-3.535c2.31-2.335,4.62-4.725,6.86-7.1a2.5,2.5,0,0,1,3.65,3.417c-.53.565-1.07,1.128-1.6,1.691-.01,0-.01.007-.01.011l-.06.056a.277.277,0,0,1-.05.056.138.138,0,0,1-.04.04.425.425,0,0,1-.07.073c-.01.009-.01.019-.02.028l-.09.086c0,.007-.01.013-.02.02a.724.724,0,0,0-.08.094c-.01,0-.01.008-.02.012a.968.968,0,0,1-.1.1v0c-.03.037-.07.073-.1.109,0,0-.01,0-.01,0-.57.6-1.15,1.2-1.73,1.8v0c-.04.036-.07.073-.11.11v0c-.04.037-.07.074-.11.111h0a1.15,1.15,0,0,1-.11.112h0l-.87.893s-.01.008-.01.011a.954.954,0,0,1-.1.1s0,.01-.01.014l-.09.1c-.01.005-.01.011-.02.017l-.09.1c-.01.005-.01.009-.02.013a.953.953,0,0,1-.1.1v.006c-.04.036-.07.072-.11.108v0c-.4.409-.8.818-1.21,1.226A2.491,2.491,0,0,1,1393.6,610.109Zm-18,17.128a2.5,2.5,0,0,1-1.67-4.361c2.46-2.2,4.91-4.454,7.28-6.687a2.5,2.5,0,1,1,3.43,3.643c-.65.6-1.29,1.2-1.93,1.8-.01,0-.01,0-.01.006-.03.031-.07.061-.1.092l-.03.024a.5.5,0,0,1-.07.068c-.02.017-.03.032-.05.048s-.03.031-.05.047-.05.043-.07.064l-.03.029-.09.081s-.01.008-.01.012q-2.415,2.23-4.88,4.442c0,.005,0,.009-.01.013s-.03.025-.04.038A2.513,2.513,0,0,1,1375.6,627.237Zm-18.95,16.095a2.5,2.5,0,0,1-1.56-4.449c1.99-1.6,3.99-3.236,5.93-4.851.57-.473,1.14-.954,1.71-1.429a2.5,2.5,0,0,1,3.22,3.825c-.02.018-.05.037-.07.055l-.09.076c-.04.033-.07.065-.11.1l-.12.1a.387.387,0,0,0-.07.058,2.041,2.041,0,0,0-.16.133c-.02.012-.03.025-.05.038-.06.049-.12.1-.17.148-.02.011-.03.023-.05.034l-.18.152-.03.029c-.06.052-.13.1-.19.157l-.03.022c-.06.054-.13.109-.19.163-.01,0-.01.008-.02.013-.07.057-.13.114-.2.171h0a.9.9,0,0,0-.1.082.427.427,0,0,0-.07.059l-.03.019q-2.67,2.22-5.41,4.425a.131.131,0,0,1-.04.037.224.224,0,0,0-.05.043c-.1.081-.2.162-.31.243A2.487,2.487,0,0,1,1356.65,643.332Zm-19.77,15.09a2.5,2.5,0,0,1-1.47-4.524c2.67-1.934,5.35-3.916,7.96-5.889a2.5,2.5,0,1,1,3.02,3.99q-3.975,3-8.04,5.947A2.516,2.516,0,0,1,1336.88,658.422Zm-20.48,14.113a2.5,2.5,0,0,1-1.38-4.591c2.77-1.811,5.54-3.663,8.24-5.5a2.5,2.5,0,0,1,2.83,4.122c-.76.522-1.53,1.041-2.3,1.56q-2.985,2.016-6.03,4.005A2.48,2.48,0,0,1,1316.4,672.535Zm-21.12,13.173a2.5,2.5,0,0,1-1.28-4.65c2.84-1.687,5.69-3.416,8.48-5.137a2.5,2.5,0,0,1,2.64,4.245q-2.43,1.5-4.87,2.976h0l-.12.073a.121.121,0,0,0-.04.023l-.09.056a.189.189,0,0,0-.05.031l-.09.048-.06.037-.06.038-.09.054-.02.01c-1.02.617-2.05,1.231-3.08,1.843A2.483,2.483,0,0,1,1295.28,685.708Zm-21.67,12.266a2.5,2.5,0,0,1-1.18-4.7c2.9-1.567,5.82-3.175,8.69-4.78a2.5,2.5,0,1,1,2.44,4.361l-.54.3s-.01.006-.01.008l-.24.137-.06.028-.21.119c-.03.016-.05.032-.08.047l-.15.084c-.05.026-.1.053-.14.079l-.12.062c-.06.034-.12.07-.18.1a.7.7,0,0,0-.08.046l-.24.132-.03.018c-.34.186-.68.373-1.01.559-.01,0-.02.008-.02.012-.09.047-.17.094-.26.142l-.06.031-.21.116-.09.05c-.05.031-.11.062-.17.093l-.12.071c-.03.016-.07.035-.1.052-.06.036-.13.072-.19.107a.7.7,0,0,0-.08.044c-.08.039-.15.079-.22.118-.02.01-.03.019-.05.029l-.24.13c-.01.005-.02.01-.02.014q-1.92,1.048-3.84,2.087A2.486,2.486,0,0,1,1273.61,697.974Zm-22.14,11.384a2.5,2.5,0,0,1-1.1-4.746c2.59-1.27,5.21-2.571,7.76-3.866.37-.188.74-.376,1.12-.565a2.5,2.5,0,0,1,2.28,4.449c-.33.164-.65.328-.97.492-.01,0-.02.007-.02.01l-.15.075h0l-.21.107-.06.028c-.06.034-.13.067-.2.1a.333.333,0,0,1-.06.03l-.15.08a.476.476,0,0,0-.07.033l-.18.093-.09.045c-.05.023-.09.045-.14.068-.03.019-.08.04-.11.059a1.32,1.32,0,0,0-.13.064.92.92,0,0,0-.1.051l-.12.059c-.05.027-.11.053-.16.08a.7.7,0,0,0-.08.043c-.07.033-.14.067-.2.1a.453.453,0,0,0-.07.036c-.05.021-.09.041-.13.062-.02.012-.05.024-.07.035l-.21.105-.06.033a1.3,1.3,0,0,0-.13.065.156.156,0,0,0-.04.018l-.24.122-.06.029-.42.209c-.01.006-.03.013-.04.019-.08.042-.17.084-.25.126-.01.006-.03.012-.04.018-.04.023-.09.047-.14.07,0,0-.01.007-.02.01-.08.042-.17.086-.25.128a.394.394,0,0,0-.07.031c-.07.037-.14.072-.22.109l-.06.031-.12.06a.594.594,0,0,0-.08.041l-.18.089c-.03.016-.07.032-.1.048a1.132,1.132,0,0,1-.11.054c-.04.022-.09.044-.13.065s-.09.044-.13.065l-.12.061-.09.041-.18.091a.6.6,0,0,0-.08.039c-.06.031-.13.061-.19.092,0,0-.01.005-.01.009-.08.035-.15.07-.22.105-.02.008-.03.017-.05.025-.07.037-.15.073-.22.109,0,0-.01,0-.01,0-.4.2-.81.4-1.22.6A2.52,2.52,0,0,1,1251.47,709.358Zm-22.57,10.529a2.5,2.5,0,0,1-1.02-4.785c3.02-1.342,6.07-2.72,9.05-4.1a2.5,2.5,0,0,1,2.1,4.534q-4.53,2.1-9.13,4.138A2.511,2.511,0,0,1,1228.9,719.887Zm-22.94,9.708a2.5,2.5,0,0,1-.94-4.82c3.07-1.233,6.16-2.5,9.19-3.773a2.5,2.5,0,0,1,1.93,4.612c-2.3.962-4.6,1.914-6.92,2.856l-.02.008c-.08.035-.17.071-.26.107-.02.007-.03.013-.05.02-.07.029-.15.059-.22.088-.03.014-.07.029-.1.043l-.15.059c-.08.034-.17.068-.25.1l-.02.008c-.42.172-.85.344-1.28.515A2.47,2.47,0,0,1,1205.96,729.595Zm-23.27,8.908a2.5,2.5,0,0,1-.86-4.85c3.11-1.128,6.24-2.291,9.32-3.456a2.5,2.5,0,0,1,1.77,4.674l-.12.046-.1.037c-.03.013-.07.026-.1.04-.08.031-.17.062-.25.093l-.03.011q-3.495,1.318-7,2.607c-.01,0-.02.005-.02.007l-.27.1c-.02.006-.03.011-.05.016l-.21.078c-.03.012-.07.024-.1.036l-.18.067a1.025,1.025,0,0,0-.11.041l-.18.065c-.05.019-.11.038-.16.057l-.03.013c-.16.057-.32.114-.47.171A2.512,2.512,0,0,1,1182.69,738.5Zm-23.56,8.124a2.5,2.5,0,0,1-.77-4.877c3.14-1.027,6.31-2.086,9.42-3.147a2.5,2.5,0,1,1,1.62,4.732q-4.725,1.609-9.49,3.167A2.5,2.5,0,0,1,1159.13,746.627Zm-23.8,7.363a2.5,2.5,0,0,1-.7-4.9c3.17-.927,6.37-1.884,9.52-2.846a2.5,2.5,0,0,1,1.46,4.781q-4.77,1.46-9.58,2.865A2.543,2.543,0,0,1,1135.33,753.99Zm-24.03,6.624a2.5,2.5,0,0,1-.63-4.92c3.2-.83,6.43-1.689,9.61-2.554a2.5,2.5,0,0,1,1.33,4.819q-4.47,1.217-8.96,2.388c-.01,0-.01,0-.01,0l-.5.129c-.04.012-.09.024-.13.035l-.09.022A2.386,2.386,0,0,1,1111.3,760.614Zm-24.22,5.9a2.5,2.5,0,0,1-.55-4.938c3.22-.733,6.47-1.5,9.68-2.266a2.5,2.5,0,1,1,1.16,4.861q-2.115.508-4.23,1.007l-.03.007-.27.063-.06.014-.24.056a.537.537,0,0,1-.07.016l-.21.049-.09.022-.22.051c-.04.01-.08.02-.13.03-.03.009-.07.018-.11.027-.09.019-.17.038-.25.058-.02.005-.04.01-.07.015-1.25.292-2.5.58-3.76.866A2.455,2.455,0,0,1,1087.08,766.513ZM1062.7,771.7a2.5,2.5,0,0,1-.48-4.953c3.24-.641,6.52-1.308,9.74-1.984a2.5,2.5,0,0,1,1.03,4.893q-4.89,1.026-9.8,2A2.622,2.622,0,0,1,1062.7,771.7Zm-24.52,4.487a2.5,2.5,0,0,1-.41-4.965c3.25-.549,6.55-1.123,9.79-1.707a2.5,2.5,0,0,1,.89,4.921c-2.04.367-4.09.727-6.13,1.081-.02,0-.03.006-.05.008-.09.017-.19.033-.28.049h-.01l-.26.045-.07.012c-.09.015-.18.03-.26.045l-.06.01-.22.038-.07.012-.26.045a.478.478,0,0,0-.05.009l-.59.1-.01,0-1.53.26A2.481,2.481,0,0,1,1038.18,776.185Zm-24.64,3.8a2.5,2.5,0,0,1-.34-4.976c3.27-.458,6.58-.94,9.84-1.434a2.5,2.5,0,0,1,.74,4.944q-4.935.747-9.89,1.442A2.688,2.688,0,0,1,1013.54,779.984ZM988.8,783.1a2.5,2.5,0,0,1-.276-4.985c3.283-.369,6.606-.761,9.877-1.164a2.5,2.5,0,0,1,.613,4.962q-2.3.283-4.609.557l-.077.009-.232.027-.161.019-.063.008q-2.4.282-4.8.552A2.483,2.483,0,0,1,988.8,783.1Zm-24.812,2.451a2.5,2.5,0,0,1-.21-4.991c3.292-.281,6.625-.583,9.906-.9a2.5,2.5,0,0,1,.485,4.977q-2.115.2-4.231.4h-.006l-.546.05-.1.009-.148.013-.222.021-.1.009-.2.018-.062.006-.279.025-.036,0q-1.386.125-2.773.244l-.027,0-.272.023-.032,0-.25.021-.124.011-.113.01-.447.038C964.13,785.553,964.06,785.556,963.992,785.556Zm-24.867,1.79a2.5,2.5,0,0,1-.145-5c3.3-.194,6.638-.408,9.927-.636a2.5,2.5,0,0,1,.346,4.988q-2.8.195-5.6.372h-.021l-.3.019h-.007l-.285.018-.034,0-.292.018h-.023l-.277.018h-.029l-.287.018-.037,0-.6.037h-.01q-1.089.066-2.18.13C939.224,787.344,939.174,787.346,939.125,787.346Zm-24.91,1.138a2.5,2.5,0,0,1-.08-5c3.3-.108,6.646-.235,9.94-.376a2.5,2.5,0,1,1,.215,4.995q-4.989.215-9.992.378Zm-24.928.493a2.5,2.5,0,0,1-.016-5c3.3-.023,6.65-.064,9.948-.12h.044a2.5,2.5,0,0,1,.043,5h-.022l-.266.005h-.055l-.587.009h-.017q-1.242.02-2.483.037h-.01l-.611.008h-.015l-.3,0h-.03l-.272,0h-.031l-.283,0h-.052l-.264,0h-.021l-.286,0h-.05l-.28,0h-.005l-.294,0h-.038q-1.864.02-3.732.033Z" fill="#3876da"/>
    </g>
    <g transform="matrix(1, 0, 0, 1, -1632, 3161)" filter="url(#Ellipse_23)">
      <circle id="Ellipse_23-2" data-name="Ellipse 23" cx="148.5" cy="148.5" r="148.5" transform="translate(9 6)" fill="#fff"/>
    </g>
    <g id="Group" transform="translate(-1705 -249)">
      <text id="Rental_deposit" data-name="Rental deposit" transform="translate(173.462 3586.113)" fill="#1e1c24" font-size="18" font-family="Open Sans', sans-serif"><tspan x="0" y="0">Rental deposit</tspan></text>
      <text id="confirmation_within_one" data-name="confirmation within one" transform="translate(138.952 3617.113)" fill="#1e1c24" font-size="18" font-family="Open Sans', sans-serif"><tspan x="0" y="0">confirmation within one</tspan></text>
      <text id="working_day" data-name="working day" transform="translate(182.977 3648.113)" fill="#1e1c24" font-size="18" font-family="Open Sans', sans-serif"><tspan x="0" y="0">working day</tspan></text>
    </g>
    <g transform="matrix(1, 0, 0, 1, -1632, 3161)" filter="url(#Ellipse_28)">
      <circle id="Ellipse_28-2" data-name="Ellipse 28" cx="148.5" cy="148.5" r="148.5" transform="translate(511 232)" fill="#fff"/>
    </g>
    <g id="Group-2" data-name="Group" transform="translate(-1713 -23)">
      <text id="Your_money_stays_available" data-name="Your money stays available" transform="translate(631.77 3586.113)" fill="#1e1c24" font-size="18" font-family="Open Sans', sans-serif"><tspan x="0" y="0">Your money stays available</tspan></text>
      <text id="whether_you_choose_a_bank_" data-name="whether you choose a bank " transform="translate(630.926 3617.113)" fill="#1e1c24" font-size="18" font-family="Open Sans', sans-serif"><tspan x="0" y="0">whether you choose a bank </tspan></text>
      <text id="deposit_or_deposit" data-name="deposit or deposit" transform="translate(669.954 3648.113)" fill="#1e1c24" font-size="18" font-family="Open Sans', sans-serif"><tspan x="0" y="0">deposit or deposit</tspan></text>
    </g>
    <g transform="matrix(1, 0, 0, 1, -1632, 3161)" filter="url(#Ellipse_29)">
      <circle id="Ellipse_29-2" data-name="Ellipse 29" cx="148.5" cy="148.5" r="148.5" transform="translate(994 6)" fill="#fff"/>
    </g>
    <g id="Group-3" data-name="Group" transform="translate(-1705 -249)">
      <text id="Always_an_answer_to_all_" data-name="Always an answer to all " transform="translate(1121.957 3586.113)" fill="#1e1c24" font-size="18" font-family="Open Sans', sans-serif"><tspan x="0" y="0">Always an answer to all </tspan></text>
      <text id="questions._Whether_by_email_" data-name="questions. Whether by email, " transform="translate(1099.945 3617.113)" fill="#1e1c24" font-size="18" font-family="Open Sans', sans-serif"><tspan x="0" y="0">questions. Whether by email, </tspan></text>
      <text id="phone_or_WhatsApp" data-name="phone or WhatsApp" transform="translate(1136.45 3648.113)" fill="#1e1c24" font-size="18" font-family="Open Sans', sans-serif"><tspan x="0" y="0">phone or WhatsApp</tspan></text>
    </g>
    <path id="Icon_awesome-location-arrow" data-name="Icon awesome-location-arrow" d="M31.255.248,2.021,13.74A3.409,3.409,0,0,0,3.37,20.262H15.739V32.631A3.409,3.409,0,0,0,22.26,33.98L35.753,4.745a3.508,3.508,0,0,0-4.5-4.5Z" transform="matrix(0.914, 0.407, -0.407, 0.914, -661.023, 3487.734)" fill="#3876da"/>
    <path id="Icon_awesome-location-arrow-2" data-name="Icon awesome-location-arrow" d="M31.255,35.753,2.02,22.26a3.409,3.409,0,0,1,1.35-6.521H15.738V3.37A3.409,3.409,0,0,1,22.26,2.021L35.753,31.255a3.508,3.508,0,0,1-4.5,4.5Z" transform="matrix(0.914, -0.407, 0.407, 0.914, -1301.865, 3507.377)" fill="#3876da"/>
    <path id="Icon_awesome-location-arrow-3" data-name="Icon awesome-location-arrow" d="M31.255.248,2.021,13.74A3.409,3.409,0,0,0,3.37,20.262H15.739V32.631A3.409,3.409,0,0,0,22.26,33.98L35.753,4.745a3.508,3.508,0,0,0-4.5-4.5Z" transform="translate(-947.544 3306.457) rotate(-135)" fill="#3876da"/>
    <path id="Icon_material-flash-on" data-name="Icon material-flash-on" d="M14.9,0H47.328L41.649,34.71H61.916L21.309,100.324v-46.6H3.869ZM40.266,6H19.792L11.226,47.727H27.309v31.5L51.146,40.71H34.588Z" transform="translate(-1506.5 3204.612)" fill="#3876da"/>
    <g id="Group_35" data-name="Group 35" transform="translate(113.24 -2740.494)">
      <path id="Path_22" data-name="Path 22" d="M-774.489,35.158a13.045,13.045,0,0,0-3.918-2.5,13.02,13.02,0,0,0-4.927-.962A13.051,13.051,0,0,0-796.38,44.75,13.05,13.05,0,0,0-783.333,57.8a13.02,13.02,0,0,0,4.927-.962,13.1,13.1,0,0,0,4.514-3.081,13,13,0,0,0,3-5.063,12.951,12.951,0,0,0,.6-3.926,13.215,13.215,0,0,0-.42-3.305,13.091,13.091,0,0,0-3.782-6.3Zm-3.918,16.832a8.689,8.689,0,0,1-4.927,1.523A8.77,8.77,0,0,1-792.1,44.75a8.774,8.774,0,0,1,8.763-8.766,8.689,8.689,0,0,1,4.927,1.523,8.763,8.763,0,0,1,3.836,7.244A8.756,8.756,0,0,1-778.407,51.99Z" transform="translate(-329.954 6178.662)" fill="#3876da"/>
      <path id="Path_23" data-name="Path 23" d="M-723.208,14.889h0V-12.719c0-2.364-1.464-4.362-3.918-5.955-4.311-2.835-11.683-4.44-19.317-4.755v-16.2h-.055c-.9-6.586-13.541-10.024-26.042-10.024-12.073,0-24.247,3.2-25.9,9.347h-.195v9.9a25.649,25.649,0,0,0-4.927-.471A25.992,25.992,0,0,0-829.52-4.918a25.988,25.988,0,0,0,25.957,25.957,25.859,25.859,0,0,0,17.019-6.371,58.673,58.673,0,0,0,11.138,1.511v1.168h0v1.83a6.356,6.356,0,0,0,1.071,1.721c3.918,4.638,14.717,7.08,25.018,7.08,11.166,0,22.935-2.874,25.859-8.28a2.773,2.773,0,0,0,.245-.522,5.283,5.283,0,0,0,.459-2.142A5.112,5.112,0,0,0-723.208,14.889Zm-71.515-53.771c.031-2.8,8.661-6.839,22.179-6.839s22.2,4.062,22.2,6.854-8.642,6.858-22.2,6.858-22.148-4.046-22.179-6.843Zm0,5.97c4.856,3.182,13.549,4.821,22.179,4.821s17.327-1.643,22.2-4.821v6.788l-.171.358a6.239,6.239,0,0,1-2.652,2.387c-6.364.358-12.435,1.616-16.622,3.739q-1.336.058-2.726.058a58.286,58.286,0,0,1-10.235-.868,26.092,26.092,0,0,0-11.94-8.879Zm17.109,27.8a25.7,25.7,0,0,0-1.274-7.836c1.145.109,2.309.191,3.478.238V-5c-.752,0-1.488-.062-2.2-.121Zm-13.907,18.222a21.576,21.576,0,0,1-12.046,3.653A21.673,21.673,0,0,1-825.24-4.906a21.673,21.673,0,0,1,21.673-21.688,21.617,21.617,0,0,1,4.927.565,21.7,21.7,0,0,1,14.931,12.416,21.632,21.632,0,0,1,1.8,7.976v.72a21.767,21.767,0,0,1-.876,6.122,21.642,21.642,0,0,1-3.2,6.535,21.758,21.758,0,0,1-5.538,5.363Zm12.494-4.159a1.2,1.2,0,0,0-.234-.027q-1.118-.125-2.173-.28a25.914,25.914,0,0,0,2.96-6.893c1.013.09,2.037.156,3.065.2V9.215q-1.869-.1-3.618-.273Zm51.9,6.231h0a.035.035,0,0,0-.023,0c-1.242,1.671-4.673,3.369-9.612,4.479a51.727,51.727,0,0,1-7.614,1.137c-1.558.117-3.209.183-4.919.183a63.133,63.133,0,0,1-6.477-.327,1.587,1.587,0,0,0-.234-.023c-6.776-.736-11.979-2.528-14.41-4.444l-.1-.078a5.063,5.063,0,0,1-.95-.978h0V8.9c.175.113.35.226.537.335,3.875,2.337,9.869,3.762,16.291,4.284,1.764.14,3.56.21,5.351.21,8.63,0,17.323-1.64,22.2-4.817Zm0-14.893-.164.347c-1.266,2.726-8.677,5.608-18.9,6.107-1.013.051-2.056.078-3.116.078-2.08,0-4.07-.1-5.939-.28C-762.4,5.85-767.839,3.977-770.2,1.975A4.089,4.089,0,0,1-771.309.64l-.175-.389V-6.76a19.759,19.759,0,0,0,3.283,1.7,49.435,49.435,0,0,0,16.423,3.077c.475,0,.95.031,1.425.039h1.055q1.429,0,2.859-.062c7.649-.319,15.005-1.924,19.317-4.759Zm-19.317-6.2q-1.39.062-2.859.062a59.51,59.51,0,0,1-9.44-.72c-7.918-1.281-12.665-4.015-12.743-6.083a.254.254,0,0,1,0-.055c0-2.792,8.646-6.854,22.2-6.854q1.464,0,2.859.062c11.886.518,19.317,4.2,19.317,6.792s-7.446,6.266-19.332,6.784Z" transform="translate(-309.72 6228.33)" fill="#3876da"/>
    </g>
    <g id="Group_36" data-name="Group 36" transform="translate(644.122 -3238.106)">
      <path id="Path_30" data-name="Path 30" d="M-862.864,276.5v35.1a12.037,12.037,0,0,1-6.084-9.052,39.866,39.866,0,0,1-.235-5.628q-.043-4.509,0-9.023A12.673,12.673,0,0,1-862.864,276.5Z" transform="translate(-309.72 6198.298)" fill="#3876da"/>
      <path id="Path_31" data-name="Path 31" d="M-840.6,307.664a6.272,6.272,0,0,1-.2,1.493,2.66,2.66,0,0,1-2.4,2.19,17.473,17.473,0,0,1-8.264-.682l-.091-.038v-37.2a12.23,12.23,0,0,1,4.485-.773h2.881a3.277,3.277,0,0,1,3.582,3.582v15.789h0Q-840.587,299.851-840.6,307.664Z" transform="translate(-318.897 6200.296)" fill="#3876da"/>
      <path id="Path_32" data-name="Path 32" d="M-710.869,273.307c.2.053.394.106.591.173V310.8a13.064,13.064,0,0,1-1.57.437,23.288,23.288,0,0,1-6.084.25,3.06,3.06,0,0,1-3.059-3.227c-.062-2.776-.029-5.551-.034-8.326V276.7a6.067,6.067,0,0,1,.058-.96c.375-2.151,1.369-3.006,3.568-2.992A26.836,26.836,0,0,1-710.869,273.307Z" transform="translate(-386.743 6200.248)" fill="#3876da"/>
      <path id="Path_33" data-name="Path 33" d="M-687.621,300.32a13.052,13.052,0,0,1-6.551,11.319V276.2a12.523,12.523,0,0,1,6.324,9.027,23.253,23.253,0,0,1,.216,3.006C-687.607,292.248-687.617,296.272-687.621,300.32Z" transform="translate(-400.704 6198.454)" fill="#3876da"/>
      <path id="Path_34" data-name="Path 34" d="M-848.24,241.4c4.8-11.332,17.594-22.026,33.5-22.641,18.564-.715,32.216,11.227,36.893,22.641h-1.614c-1.493,0-2.992-.034-4.485,0a1.565,1.565,0,0,1-1.522-.831,34.049,34.049,0,0,0-5.037-6.276,31.909,31.909,0,0,0-16.384-8.495,30.958,30.958,0,0,0-11.909-.067,32.1,32.1,0,0,0-17.512,9.426,30.884,30.884,0,0,0-4.086,5.282,1.921,1.921,0,0,1-1.825.96C-844.221,241.374-846.2,241.4-848.24,241.4Z" transform="translate(-320.618 6228.33)" fill="#3876da"/>
      <path id="Path_35" data-name="Path 35" d="M-756.287,355.622c1.9,1.33,4.1,1.008,6.286,1.085a11.37,11.37,0,0,1-2.3,4.72,12.821,12.821,0,0,1-10.372,4.956c-1.921,0-3.8,0-5.7-.024a1.561,1.561,0,0,0-1.551.984,9.251,9.251,0,0,1-7.424,5.412,9.306,9.306,0,0,1-9.335-4.211,9.7,9.7,0,0,1,5.45-14.766,9.671,9.671,0,0,1,11.352,5.239,1.282,1.282,0,0,0,1.441.884c2.05-.067,4.106-.029,6.161-.038a6.093,6.093,0,0,0,5.647-3.625c.091-.173.178-.346.269-.514C-756.374,355.7-756.335,355.684-756.287,355.622Z" transform="translate(-351.74 6158.312)" fill="#3876da"/>
    </g>
  </g>
</svg>
