<svg xmlns="http://www.w3.org/2000/svg" xmlns:xlink="http://www.w3.org/1999/xlink" width="46.499" height="62.861" viewBox="0 0 46.499 62.861">
  <defs>
    <linearGradient id="linear-gradient" x1="0.809" y1="0.5" x2="-1.516" y2="0.5" gradientUnits="objectBoundingBox">
      <stop offset="0" stop-color="#3876da"/>
      <stop offset="1" stop-color="#b7d2ff"/>
    </linearGradient>
    <linearGradient id="linear-gradient-2" x1="-0.396" x2="0.773" xlink:href="#linear-gradient"/>
    <linearGradient id="linear-gradient-3" x1="-1.086" y1="0.5" x2="0.664" y2="0.5" gradientUnits="objectBoundingBox">
      <stop offset="0" stop-color="#3876da"/>
      <stop offset="1" stop-color="#6ba1fb"/>
    </linearGradient>
  </defs>
  <g id="Group_220" data-name="Group 220" transform="translate(-1023 -1216.668)">
    <path id="Path_25" data-name="Path 25" d="M80.348,99.255,60.812,122.5H35.7l19.55-23.249L35.7,76.006H60.8Z" transform="translate(1145.505 1192.235) rotate(90)" fill="url(#linear-gradient)"/>
    <path id="Path_26" data-name="Path 26" d="M87.294,99.255,74.821,114.1H58.792L71.274,99.255,58.792,84.412h16.02Z" transform="translate(1145.505 1192.235) rotate(90)" opacity="0.3" fill="url(#linear-gradient-2)"/>
    <path id="Path_27" data-name="Path 27" d="M81.955,99.255,66.969,117.09H57.275l15-17.834-15-17.835h9.684Z" transform="translate(1145.505 1192.235) rotate(90)" fill="url(#linear-gradient-3)"/>
    <g id="Group_214" data-name="Group 214" transform="translate(823.242 1126.073)">
      <path id="Path_38" data-name="Path 38" d="M217.125,106a5.354,5.354,0,0,1-4.624-2.1,11,11,0,0,1,0-11.211,6.144,6.144,0,0,1,9.249,0,11.009,11.009,0,0,1,0,11.211A5.357,5.357,0,0,1,217.125,106Zm-2.2-11.295a9.564,9.564,0,0,0,0,7.2,2.448,2.448,0,0,0,4.39,0,9.577,9.577,0,0,0,0-7.2,2.448,2.448,0,0,0-4.39,0Z" fill="#3876da"/>
      <path id="Path_39" data-name="Path 39" d="M225.224,93.771V90.937h9.121v2.3L231.3,96.712a4.342,4.342,0,0,1,2.771,1.5,4.277,4.277,0,0,1,.98,2.781,4.538,4.538,0,0,1-1.588,3.676A6.1,6.1,0,0,1,229.4,106a8.812,8.812,0,0,1-5.008-1.748l1.364-2.642a6.789,6.789,0,0,0,3.772,1.492,2.668,2.668,0,0,0,1.652-.491,1.666,1.666,0,0,0,.65-1.417,1.723,1.723,0,0,0-.746-1.47,3.446,3.446,0,0,0-2.067-.544,7.115,7.115,0,0,0-1.982.4V97.138l2.856-3.367Z" fill="#3876da"/>
    </g>
  </g>
</svg>
