<svg xmlns="http://www.w3.org/2000/svg" xmlns:xlink="http://www.w3.org/1999/xlink" width="46.499" height="62.861" viewBox="0 0 46.499 62.861">
  <defs>
    <linearGradient id="linear-gradient" x1="0.809" y1="0.5" x2="-1.516" y2="0.5" gradientUnits="objectBoundingBox">
      <stop offset="0" stop-color="#3876da"/>
      <stop offset="1" stop-color="#b7d2ff"/>
    </linearGradient>
    <linearGradient id="linear-gradient-2" x1="-0.396" x2="0.773" xlink:href="#linear-gradient"/>
    <linearGradient id="linear-gradient-3" x1="-1.086" y1="0.5" x2="0.664" y2="0.5" gradientUnits="objectBoundingBox">
      <stop offset="0" stop-color="#3876da"/>
      <stop offset="1" stop-color="#6ba1fb"/>
    </linearGradient>
  </defs>
  <g id="Group_221" data-name="Group 221" transform="translate(-683.5 -1216.668)">
    <path id="Path_25" data-name="Path 25" d="M80.348,99.255,60.812,122.5H35.7l19.55-23.249L35.7,76.006H60.8Z" transform="translate(806.005 1192.235) rotate(90)" fill="url(#linear-gradient)"/>
    <path id="Path_26" data-name="Path 26" d="M87.294,99.255,74.821,114.1H58.792L71.274,99.255,58.792,84.412h16.02Z" transform="translate(806.005 1192.235) rotate(90)" opacity="0.3" fill="url(#linear-gradient-2)"/>
    <path id="Path_27" data-name="Path 27" d="M81.955,99.255,66.969,117.09H57.275l15-17.834-15-17.835h9.684Z" transform="translate(806.005 1192.235) rotate(90)" fill="url(#linear-gradient-3)"/>
    <g id="Group_211" data-name="Group 211" transform="translate(578.986 1126.073)">
      <path id="Path_33" data-name="Path 33" d="M121.722,106a5.355,5.355,0,0,1-4.624-2.1,11,11,0,0,1,0-11.211,6.144,6.144,0,0,1,9.249,0,11.009,11.009,0,0,1,0,11.211A5.357,5.357,0,0,1,121.722,106Zm-2.195-11.295a9.577,9.577,0,0,0,0,7.2,2.448,2.448,0,0,0,4.39,0,9.564,9.564,0,0,0,0-7.2,2.448,2.448,0,0,0-4.39,0Z" fill="#3876da"/>
      <path id="Path_34" data-name="Path 34" d="M135.713,96.744a2.69,2.69,0,0,0,.565-1.545,1.712,1.712,0,0,0-.49-1.247,1.683,1.683,0,0,0-1.257-.5q-1.407,0-2.664,2L129.2,93.878a8.251,8.251,0,0,1,2.291-2.452,5.619,5.619,0,0,1,3.175-.831,5.115,5.115,0,0,1,3.389,1.226,4.126,4.126,0,0,1,1.459,3.335,4.487,4.487,0,0,1-.585,2.206,14.448,14.448,0,0,1-2.163,2.7l-2.686,2.792h5.882v2.984H129.458v-2.473l4.369-4.475A18.958,18.958,0,0,0,135.713,96.744Z" fill="#3876da"/>
    </g>
  </g>
</svg>
