<svg xmlns="http://www.w3.org/2000/svg" width="247.396" height="247.396" viewBox="0 0 247.396 247.396">
  <path id="Path_47" data-name="Path 47" d="M51.655,30.488a169.225,169.225,0,0,0,6.185,35.6L41.346,82.579A203.765,203.765,0,0,1,30.9,30.488H51.655M187.173,195.694a175.277,175.277,0,0,0,35.735,6.185v20.479A212.024,212.024,0,0,1,170.68,212.05l16.493-16.356M64.849,3h-48.1A13.785,13.785,0,0,0,3,16.744C3,145.8,107.594,250.4,236.652,250.4A13.785,13.785,0,0,0,250.4,236.652V188.684a13.785,13.785,0,0,0-13.744-13.744,156.78,156.78,0,0,1-49.067-7.834,11.538,11.538,0,0,0-4.261-.687,14.079,14.079,0,0,0-9.758,3.986l-30.237,30.237a208.206,208.206,0,0,1-90.574-90.574L82.991,79.83a13.793,13.793,0,0,0,3.436-14.019,156.139,156.139,0,0,1-7.834-49.067A13.785,13.785,0,0,0,64.849,3Z" transform="translate(-3 -3)" fill="#fff"/>
</svg>
