<svg xmlns="http://www.w3.org/2000/svg" width="15.5" height="15.5" viewBox="0 0 15.5 15.5">
  <path id="Icon_awesome-download" data-name="Icon awesome-download" d="M6.539,0H8.961a.725.725,0,0,1,.727.727V5.812h2.655a.6.6,0,0,1,.427,1.032l-4.6,4.607a.587.587,0,0,1-.826,0L2.728,6.845a.6.6,0,0,1,.427-1.032H5.812V.727A.725.725,0,0,1,6.539,0ZM15.5,11.382v3.391a.725.725,0,0,1-.727.727H.727A.725.725,0,0,1,0,14.773V11.382a.725.725,0,0,1,.727-.727H5.168l1.483,1.483a1.551,1.551,0,0,0,2.2,0l1.483-1.483h4.441A.725.725,0,0,1,15.5,11.382Zm-3.754,2.664a.605.605,0,1,0-.605.605A.607.607,0,0,0,11.746,14.046Zm1.937,0a.605.605,0,1,0-.605.605A.607.607,0,0,0,13.683,14.046Z" fill="#fff"/>
</svg>
